<svg width="32" height="32" viewBox="0 0 32 32" fill="none" xmlns="http://www.w3.org/2000/svg">
<path fill-rule="evenodd" clip-rule="evenodd" d="M7.99984 4C6.52708 4 5.33317 5.19391 5.33317 6.66667V25.3333C5.33317 26.8061 6.52708 28 7.99984 28H23.9998C25.4726 28 26.6665 26.8061 26.6665 25.3333V6.66667C26.6665 5.19391 25.4726 4 23.9998 4H7.99984ZM15.3332 5.33333C15.7013 5.33333 15.9997 5.67435 15.9998 6.09505V16H17.3332V7.61849C17.3334 7.19826 17.6322 6.85726 17.9998 6.85677C18.3679 6.85677 18.6662 7.19796 18.6665 7.61849V21.1315L21.7069 17.8073C22.2447 17.1774 23.1836 17.1029 23.8136 17.6406C24.0235 17.8199 24.0591 18.1351 23.88 18.3451L17.772 25.1875C17.0386 26.0897 15.9198 26.6666 14.6665 26.6667H10.6665C9.93034 26.6664 9.33317 26.0696 9.33317 25.3333V10.0951C9.33326 9.67465 9.63207 9.33382 9.99984 9.33333C10.368 9.33333 10.6664 9.67435 10.6665 10.0951V16H11.9998V7.61849C12.0001 7.19826 12.2988 6.85726 12.6665 6.85677C13.0345 6.85677 13.3329 7.19796 13.3332 7.61849V16H14.6665V6.09505C14.6666 5.67465 14.9654 5.33382 15.3332 5.33333Z" fill="url(#paint0_linear_91_35)"/>
<defs>
<linearGradient id="paint0_linear_91_35" x1="24.2961" y1="4" x2="22.8539" y2="32.2285" gradientUnits="userSpaceOnUse">
<stop offset="0.197115" stop-color="#84B996"/>
<stop offset="1" stop-color="#4A8457"/>
</linearGradient>
</defs>
</svg>
