<svg width="32" height="32" viewBox="0 0 32 32" fill="none" xmlns="http://www.w3.org/2000/svg">
<path fill-rule="evenodd" clip-rule="evenodd" d="M12.0677 6.47495C13.5746 5.43994 15.6219 5.10759 18.2591 5.48224C22 6.10955 24 10.0908 24 11.3271V25.352C24 27.5508 22.2091 29.3333 20 29.3333C18.8809 29.3333 17.8705 28.8744 17.1445 28.1371C16.6996 27.785 16.2384 27.3619 15.7786 26.8865C14.7012 25.7721 13.5481 24.3129 12.4727 22.7031C11.0353 20.5515 10.1714 19.657 8.81771 16.9179C8.29448 15.8591 8 14.668 8 13.4084C8.00001 10.4338 9.63976 7.84199 12.0677 6.47495ZM17.0534 7.59597C14.744 7.25857 10.9744 7.99706 9.57943 11.9193C9.53437 12.046 9.49179 12.176 9.45182 12.3094C9.43908 12.352 9.43349 12.395 9.43099 12.4377C9.41747 12.6536 9.52619 12.8633 9.71745 12.982C10.0833 13.2085 10.5654 13.0053 10.7161 12.6036C11.8983 9.45277 15.207 8.60376 17.0169 8.9347C19.504 9.61081 20.9381 12.0837 20.3385 14.44C19.5497 15.2712 19.0653 16.3949 19.0651 17.6294C19.0655 18.9664 19.7404 20.0809 20.694 20.8421C21.2374 21.2759 21.4948 21.834 21.5951 22.4128C21.7212 23.1412 22.3345 23.3588 22.6667 22.6979C22.9721 22.0899 22.9064 21.551 22.6784 21.0909H22.6758C22.6502 21.0394 22.6205 20.9901 22.5911 20.9406C22.5333 20.843 22.4703 20.749 22.401 20.6593C22.1354 20.3141 21.8037 20.0273 21.5286 19.8079C21.0504 19.4263 20.7039 18.9506 20.5286 18.4147C20.5198 18.3879 20.5093 18.3615 20.5013 18.3344C20.4859 18.2814 20.4729 18.2278 20.4609 18.1737C20.4511 18.1299 20.4424 18.0859 20.4349 18.0415C20.4277 17.9976 20.4203 17.9538 20.4154 17.9093C20.4048 17.8174 20.3985 17.7241 20.3984 17.6294C20.3986 16.6959 20.7859 15.8535 21.4102 15.25L21.5495 15.1152L21.5938 14.9273C21.5997 14.9022 21.6056 14.874 21.6081 14.8625C21.6095 14.8557 21.6111 14.8503 21.612 14.8469L21.6133 14.843C22.4501 11.7339 20.5522 8.50362 17.3398 7.64651L17.3151 7.64003L17.2917 7.63485L17.0534 7.59597Z" fill="url(#paint0_linear_91_10)"/>
<path d="M20.1328 11.6524C20.49 12.5165 20.5808 13.4878 20.3385 14.44C19.5497 15.2712 19.0653 16.3949 19.0651 17.6294C19.0655 18.9664 19.7404 20.0809 20.694 20.8421C21.2374 21.2759 21.4948 21.834 21.5951 22.4128C21.7212 23.1412 22.3345 23.3588 22.6667 22.6979C22.7057 22.6201 22.7369 22.5428 22.7643 22.4673C22.5763 23.2703 21.6429 23.77 20.8281 23.3278L15.776 20.5856C12.8668 19.0061 13.0384 14.7925 16.0664 13.4525L20.1328 11.6524Z" fill="#A56D44"/>
<path d="M9.33333 10.7543C10.4655 6.54896 13.3333 4.78248 18.2591 5.48224C22 6.10955 24 10.0908 24 11.3271V21.367C23.5333 21.3517 23.0887 21.252 22.6758 21.0909C22.4061 20.5473 21.9114 20.1132 21.5286 19.8079C20.8274 19.2483 20.3988 18.49 20.3984 17.6294C20.3986 16.6959 20.7859 15.8535 21.4102 15.25L21.5495 15.1152L21.5938 14.9273C21.5997 14.9022 21.6056 14.874 21.6081 14.8625C21.6095 14.8557 21.6111 14.8503 21.612 14.8469L21.6133 14.843C22.4501 11.7339 20.5522 8.50362 17.3398 7.64651L17.3151 7.64003L17.2917 7.63485L17.0534 7.59597C14.6694 7.24767 10.7294 8.04585 9.45182 12.3094C9.43817 12.355 9.43178 12.4011 9.42969 12.4468C9.45648 12.3473 9.39294 12.5461 9.42969 12.4468L9.33333 10.7543Z" fill="#FEC498"/>
<defs>
<linearGradient id="paint0_linear_91_10" x1="11.3333" y1="8.10015" x2="14.6382" y2="18.7256" gradientUnits="userSpaceOnUse">
<stop stop-color="#C28A60"/>
<stop offset="1" stop-color="#FEC498"/>
</linearGradient>
</defs>
</svg>
