<svg width="32" height="32" viewBox="0 0 32 32" fill="none" xmlns="http://www.w3.org/2000/svg">
<path d="M15.3335 5.33325C14.9656 5.33354 14.6669 5.67455 14.6669 6.09516L14.6663 15.9999H13.333L13.3335 7.61897C13.3335 7.19818 13.0351 6.85706 12.6669 6.85706C12.2989 6.85735 12.0002 7.19836 12.0002 7.61897L11.9997 15.9999H10.6663L10.6669 10.0952C10.6669 9.67437 10.3684 9.33325 10.0002 9.33325C9.63223 9.33354 9.33354 9.67455 9.33354 10.0952L9.33301 25.3333C9.33301 26.0695 9.93018 26.6663 10.6663 26.6666H14.6663C15.9197 26.6666 17.0384 26.0897 17.7718 25.1874L23.8803 18.345C24.0593 18.135 24.0235 17.8198 23.8136 17.6405C23.1836 17.1028 22.2447 17.1773 21.7069 17.8072L18.6663 21.1314L18.6669 7.61897C18.6669 7.19818 18.3684 6.85706 18.0002 6.85706C17.6322 6.85735 17.3335 7.19836 17.3335 7.61897L17.333 15.9999H15.9997L16.0002 6.09516C16.0002 5.67437 15.7017 5.33325 15.3335 5.33325Z" fill="url(#paint0_linear_91_39)"/>
<defs>
<linearGradient id="paint0_linear_91_39" x1="16.5643" y1="26.6666" x2="10.6673" y2="7.99992" gradientUnits="userSpaceOnUse">
<stop stop-color="#A04141"/>
<stop offset="0.692308" stop-color="#D47D7D"/>
</linearGradient>
</defs>
</svg>
