<svg width="32" height="32" viewBox="0 0 32 32" fill="none" xmlns="http://www.w3.org/2000/svg">
<path d="M13.3332 7.99992C13.3332 6.52716 14.5271 5.33325 15.9998 5.33325C17.4726 5.33325 18.6665 6.52716 18.6665 7.99992V13.9999C18.6665 14.3681 18.368 14.6666 17.9998 14.6666H13.9998C13.6316 14.6666 13.3332 14.3681 13.3332 13.9999V7.99992Z" fill="#C45E44"/>
<path d="M19.8683 6.99731C20.7755 7.95345 21.3332 9.24451 21.3332 10.6666V29.3333H10.6665V10.6666C10.6665 9.24483 11.2232 7.95339 12.13 6.99731C12.0472 7.31797 11.9998 7.65337 11.9998 7.99992V13.9999C11.9998 15.1045 12.8953 15.9999 13.9998 15.9999H17.9998C19.1044 15.9999 19.9998 15.1045 19.9998 13.9999V7.99992C19.9998 7.65326 19.9512 7.31807 19.8683 6.99731Z" fill="#DCA192"/>
<path d="M15.9998 5.33325C17.4726 5.33325 18.6665 6.52716 18.6665 7.99992V13.9999L18.6535 14.134C18.5914 14.438 18.3221 14.6666 17.9998 14.6666H13.9998C13.6776 14.6666 13.4082 14.438 13.3462 14.134L13.3332 13.9999V7.99992C13.3332 6.52716 14.5271 5.33325 15.9998 5.33325Z" fill="#DCA192"/>
<path d="M15.9998 19.9999C17.0244 19.9999 18.0222 20.122 18.979 20.3528L18.354 22.9452C17.6004 22.7635 16.8123 22.6666 15.9998 22.6666C15.1874 22.6666 14.3993 22.7635 13.6457 22.9452L13.0207 20.3528C13.9774 20.122 14.9753 19.9999 15.9998 19.9999Z" fill="#B7634F"/>
</svg>
