<svg width="32" height="32" viewBox="0 0 32 32" fill="none" xmlns="http://www.w3.org/2000/svg">
<path d="M15.9077 23.2662C19.7471 21.8001 22.2187 21.8738 23.6868 23.2025C23.7841 23.2906 23.8763 23.3847 23.9648 23.4836C22.1704 25.7624 20.493 26.1905 19.0995 25.8166C18.9378 25.7732 18.7796 25.7207 18.6258 25.6573L20.1859 28H18.6258L14.8496 23.4836L15.9077 23.2662Z" fill="#872050"/>
<path fill-rule="evenodd" clip-rule="evenodd" d="M14.5113 4.153C16.2394 3.79533 18.1477 4.08088 19.7801 4.84112L20.104 5.00034C21.5116 5.72776 22.7315 6.84447 23.4065 8.27757L24.7156 9.17475C25.9302 10.0073 26.772 10.9847 27.2988 12.0477C27.995 13.4543 28.1188 14.9641 27.9047 16.4062C27.6063 18.4136 26.6856 20.3378 25.6455 21.8212L25.0773 22.6298L24.9855 22.5273C22.9459 20.2462 19.6353 20.3533 15.5356 21.8987L13.2845 22.3612C10.7367 22.1339 8.7367 21.4653 7.23966 20.4463C5.11712 19.0009 4.11912 16.9305 4.01007 14.8196C3.90406 12.7583 4.64325 10.7197 5.85227 9.19552C6.98734 7.76477 9.05569 6.92192 11.0172 6.82518C11.794 5.41309 12.9406 4.55407 14.1685 4.2333L14.5113 4.153ZM19.2079 6.1329C17.7116 5.43615 15.9785 5.22472 14.5086 5.60816L14.236 5.694C12.8594 6.19626 11.3939 7.82818 11.3937 11.264L11.2439 11.2793L11.0982 11.3194C10.7437 11.444 10.2923 11.7915 9.88217 12.4949C9.48161 13.183 9.22532 14.0595 9.20467 14.9566C9.21072 15.0921 9.22399 15.2287 9.24246 15.3637C9.38859 16.4286 9.93526 17.4958 11.1562 18.2989C12.3001 19.0505 15.1398 19.6103 18.1147 19.5949C21.1247 18.9196 23.214 19.4367 24.524 20.9932C25.4132 19.7249 26.1793 18.1363 26.4836 16.517L26.5376 16.193C26.7182 14.9762 26.6052 13.7783 26.0666 12.6901C25.6588 11.8673 24.9878 11.0674 23.9477 10.3544C24.0071 11.2533 23.8658 12.2061 23.4915 13.1913L23.4551 13.273C23.2586 13.6381 22.782 13.7089 22.4618 13.4433L22.3957 13.3824C22.1916 13.1651 22.1421 12.8415 22.2445 12.5586C22.6889 11.3341 22.6564 10.2592 22.3511 9.3589C21.9102 8.06052 20.8519 6.97485 19.4859 6.26859L19.2079 6.1329Z" fill="#A53167"/>
<path d="M15.6632 5.42905C16.8375 5.3617 18.0893 5.61206 19.2079 6.1329L19.4859 6.26859C19.8128 6.4376 20.121 6.62974 20.4084 6.8399C20.4273 6.85374 20.4463 6.86743 20.4651 6.88144C20.8176 7.145 21.1361 7.43802 21.4125 7.75647C21.6041 7.97706 21.7755 8.20945 21.924 8.4529C22.0996 8.74096 22.244 9.04328 22.3511 9.3589C22.6564 10.2592 22.6889 11.3341 22.2445 12.5586C22.1421 12.8415 22.1916 13.1651 22.3957 13.3824L22.4618 13.4433C22.4656 13.4464 22.4694 13.4495 22.4733 13.4525C22.4998 13.4736 22.5287 13.4899 22.5569 13.5065C22.5869 13.524 22.6173 13.5382 22.6487 13.5508C22.666 13.5577 22.6824 13.5661 22.7 13.5716C22.7441 13.5852 22.7886 13.5935 22.8336 13.5979C22.8377 13.5983 22.8417 13.5989 22.8458 13.5993C22.898 13.6034 22.9499 13.6032 23.001 13.5951C23.0078 13.594 23.0144 13.5909 23.0212 13.5896C23.0653 13.5811 23.1081 13.5684 23.1494 13.5508C23.1617 13.5456 23.1725 13.5374 23.1845 13.5314C23.2179 13.5146 23.2501 13.4963 23.2803 13.4733C23.3084 13.4519 23.3354 13.4292 23.36 13.4027C23.3663 13.3958 23.3728 13.3891 23.3788 13.3819C23.4247 13.3276 23.4635 13.265 23.4915 13.1913C23.8658 12.2061 24.0071 11.2533 23.9477 10.3544C24.9878 11.0674 25.6588 11.8673 26.0666 12.6901C26.6052 13.7783 26.7182 14.9762 26.5376 16.193L26.4836 16.517C26.4157 16.8781 26.3204 17.2374 26.2103 17.5923C25.8268 18.8285 25.215 20.0079 24.524 20.9932L24.2682 20.7144C24.2621 20.7082 24.2555 20.7026 24.2493 20.6964C24.172 20.619 24.0925 20.5447 24.0105 20.4735C23.9983 20.463 23.9863 20.4521 23.974 20.4417C23.795 20.2896 23.6047 20.1527 23.4031 20.0305C23.3972 20.0269 23.3915 20.023 23.3856 20.0194C22.9933 19.7841 22.5575 19.6093 22.0778 19.4891C22.029 19.4769 21.9804 19.4627 21.9307 19.4517C21.8306 19.4296 21.7283 19.4122 21.6244 19.395C21.585 19.3885 21.5455 19.3814 21.5056 19.3756C21.3986 19.36 21.2899 19.3472 21.179 19.3368C21.1343 19.3326 21.0893 19.3291 21.044 19.3257C20.3454 19.2739 19.571 19.3204 18.716 19.4725C18.6913 19.4769 18.6666 19.4818 18.6418 19.4864C18.4834 19.5155 18.3224 19.5484 18.1586 19.5847C18.1428 19.5881 18.1272 19.5922 18.1114 19.5957C15.1378 19.6107 12.2997 19.0502 11.1562 18.2989C9.93526 17.4958 9.38859 16.4286 9.24246 15.3637C9.22459 15.2331 9.213 15.1011 9.2067 14.97C9.21248 14.6825 9.24155 14.3976 9.29308 14.1198C9.30419 14.0595 9.31642 13.9995 9.32951 13.9399C9.44601 13.4131 9.63559 12.9184 9.88217 12.4949C10.2741 11.8227 10.7036 11.4765 11.0503 11.3383C11.0662 11.3319 11.0826 11.3249 11.0982 11.3194L11.2439 11.2793L11.3937 11.264C11.3938 8.15092 12.5982 6.52218 13.848 5.86933C13.9774 5.80172 14.1068 5.74116 14.236 5.694L14.5086 5.60816C14.8691 5.5141 15.2447 5.45591 15.6294 5.43181C15.6407 5.43111 15.6519 5.4297 15.6632 5.42905Z" fill="url(#paint0_linear_91_17)"/>
<defs>
<linearGradient id="paint0_linear_91_17" x1="18.3044" y1="6.81591" x2="18.3044" y2="20.9937" gradientUnits="userSpaceOnUse">
<stop stop-color="#CF9BB2"/>
<stop offset="1" stop-color="#CE568A"/>
</linearGradient>
</defs>
</svg>
