<svg width="32" height="32" viewBox="0 0 32 32" fill="none" xmlns="http://www.w3.org/2000/svg">
<path fill-rule="evenodd" clip-rule="evenodd" d="M21.902 13.2392C22.3413 12.7999 23.0374 12.7716 23.5088 13.1558L23.5999 13.2392L28.9788 18.6181C29.7343 19.3741 29.1988 20.6663 28.1299 20.6663H24.0465C23.6676 24.1273 20.3692 26.6659 16.596 26.6663C14.6867 26.6663 12.9241 26.0283 11.5869 24.9579C11.095 24.564 11.1438 23.8335 11.6207 23.4215C12.0836 23.0217 12.7768 23.0761 13.277 23.428C14.1705 24.0564 15.3222 24.4449 16.596 24.4449C19.3138 24.4446 21.3823 22.7243 21.7549 20.6663H17.372C16.3033 20.666 15.7677 19.374 16.5231 18.6181L21.902 13.2392ZM17.6937 19.3329H27.8082L22.751 14.2756L17.6937 19.3329Z" fill="url(#paint0_linear_91_41)"/>
<path d="M26.0599 19.3319H19.4427L22.7513 16.1327L26.0599 19.3319Z" fill="#B4E1B2"/>
<path fill-rule="evenodd" clip-rule="evenodd" d="M15.3871 5.33325C17.2653 5.33338 18.9987 5.97769 20.3102 7.05721C20.7837 7.4475 20.7353 8.1577 20.2751 8.56372C19.8151 8.96923 19.1173 8.91399 18.6175 8.55851C17.7454 7.93803 16.6252 7.55602 15.3871 7.55591C12.726 7.5561 10.7014 9.2753 10.3363 11.3333H14.6266C15.6956 11.3333 16.2311 12.6254 15.4756 13.3814L10.0967 18.7603C9.65733 19.1996 8.9612 19.2281 8.48992 18.8437L8.39877 18.7603L3.01987 13.3814C2.26464 12.6255 2.80014 11.3335 3.86882 11.3333H8.09018C8.46129 7.87223 11.6924 5.33345 15.3871 5.33325ZM9.24773 17.7239L14.305 12.6666H4.19044L9.24773 17.7239Z" fill="url(#paint1_linear_91_41)"/>
<path d="M12.5578 12.6666L9.24795 15.8671L5.93805 12.6666H12.5578Z" fill="#B4E1B2"/>
<defs>
<linearGradient id="paint0_linear_91_41" x1="11.2401" y1="19.7768" x2="29.3326" y2="19.7768" gradientUnits="userSpaceOnUse">
<stop stop-color="#6DBC7E"/>
<stop offset="1" stop-color="#4A8457"/>
</linearGradient>
<linearGradient id="paint1_linear_91_41" x1="2.6665" y1="12.2228" x2="20.6435" y2="12.2228" gradientUnits="userSpaceOnUse">
<stop stop-color="#4A8457"/>
<stop offset="1" stop-color="#6BB37A"/>
</linearGradient>
</defs>
</svg>
