<svg width="32" height="32" viewBox="0 0 32 32" fill="none" xmlns="http://www.w3.org/2000/svg">
<path d="M24.8633 14.2598C19.4248 3.87153 9.55025 8.13631 6.90551 14.647C6.51834 15.6001 6.61869 16.6706 7.08281 17.5912C11.3171 25.9899 20.4597 26.1338 24.8622 18.0229C25.4983 16.8509 25.4816 15.4407 24.8633 14.2598Z" fill="url(#paint0_linear_91_59)"/>
<path d="M22.9773 15.979C22.9773 19.6512 19.8917 22.6282 16.0854 22.6282C12.2792 22.6282 9.19358 19.6512 9.19358 15.979C9.19358 12.3068 12.2792 9.32983 16.0854 9.32983C19.8917 9.32983 22.9773 12.3068 22.9773 15.979Z" fill="url(#paint1_linear_91_59)"/>
<path d="M18.8422 15.979C18.8422 17.4479 17.6079 18.6387 16.0854 18.6387C14.5629 18.6387 13.3287 17.4479 13.3287 15.979C13.3287 14.5101 14.5629 13.3193 16.0854 13.3193C17.6079 13.3193 18.8422 14.5101 18.8422 15.979Z" fill="black"/>
<path d="M20.2206 10.6584C21.1668 11.3441 21.9242 12.2602 22.4039 13.3193L18.6107 14.9154C18.4187 14.4918 18.1157 14.1273 17.7371 13.8531L20.2206 10.6584Z" fill="#C3C3D6"/>
<defs>
<linearGradient id="paint0_linear_91_59" x1="15.6718" y1="23.0857" x2="19.173" y2="9.53875" gradientUnits="userSpaceOnUse">
<stop offset="0.307692" stop-color="#F7F7F7"/>
<stop offset="1" stop-color="#ADADAD"/>
</linearGradient>
<linearGradient id="paint1_linear_91_59" x1="12.7774" y1="9.99473" x2="19.2348" y2="21.961" gradientUnits="userSpaceOnUse">
<stop stop-color="#20212F"/>
<stop offset="0.5" stop-color="#8886AD"/>
<stop offset="1" stop-color="#4C4C6E"/>
</linearGradient>
</defs>
</svg>
